<?xml version="1.0" standalone="no"?>
<!DOCTYPE svg PUBLIC "-//W3C//DTD SVG 20010904//EN"
 "http://www.w3.org/TR/2001/REC-SVG-20010904/DTD/svg10.dtd">
<svg version="1.0" xmlns="http://www.w3.org/2000/svg"
 width="470.000000pt" height="470.000000pt" viewBox="0 0 470.000000 470.000000"
 preserveAspectRatio="xMidYMid meet">
<metadata>
Created by potrace 1.11, written by Peter Selinger 2001-2013
</metadata>
<g transform="translate(0.000000,470.000000) scale(0.100000,-0.100000)"
fill="#000000" stroke="none">
<path d="M427 4640 c-81 -25 -116 -43 -183 -93 -106 -78 -188 -209 -220 -352
-7 -32 -10 -3551 -3 -3647 2 -32 7 -58 12 -58 4 0 7 -7 7 -15 0 -24 55 -139
91 -192 39 -57 106 -123 163 -162 48 -33 124 -71 143 -71 7 0 13 -3 13 -7 0
-5 15 -10 33 -13 17 -3 876 -5 1907 -5 l1875 0 75 37 c167 82 277 211 341 396
18 53 19 116 19 1906 0 1512 -3 1860 -14 1901 -47 176 -186 323 -354 375 -63
20 -96 20 -1956 19 -1811 0 -1893 -1 -1949 -19z"/>
</g>
</svg>
